<svg width="35" height="35" viewBox="0 0 35 35" fill="none" xmlns="http://www.w3.org/2000/svg">
    <path d="M0 17.6051C0.000985656 21.7981 1.48832 25.8533 4.19468 29.0418C6.90104 32.2302 10.6489 34.3429 14.7648 35V22.6938H10.325V17.6051H14.77V13.7314C14.6719 12.8247 14.7733 11.9075 15.0672 11.0447C15.3611 10.182 15.8401 9.3949 16.4704 8.73943C17.1006 8.08395 17.8666 7.57614 18.7138 7.25207C19.5611 6.928 20.4689 6.79561 21.3728 6.8643C22.6853 6.88543 23.9978 7.00341 25.2928 7.21646V11.5462H23.0808C22.7048 11.4967 22.3226 11.5328 21.9624 11.6519C21.6021 11.7709 21.2731 11.9699 20.9996 12.2341C20.7261 12.4983 20.5151 12.821 20.3822 13.1783C20.2493 13.5356 20.1979 13.9184 20.2317 14.2984V17.6051H25.081L24.3057 22.6956H20.2317V35C23.5351 34.4747 26.6197 33.0081 29.1203 30.7737C31.6209 28.5393 33.4328 25.6308 34.3416 22.3924C35.2503 19.1541 35.2178 15.7215 34.2478 12.5012C33.2779 9.28086 31.4112 6.40761 28.8686 4.22161C26.3261 2.03561 23.2143 0.628406 19.9016 0.166611C16.5889 -0.295184 13.2141 0.207767 10.1767 1.61592C7.13927 3.02407 4.56648 5.27844 2.76291 8.11214C0.959339 10.9458 0.000530898 14.2402 0 17.6051V17.6051Z" fill="#FDF5F5"/>
</svg>
