<svg width="195" height="64" viewBox="0 0 195 64" fill="none" xmlns="http://www.w3.org/2000/svg">
    <path d="M0.588 7.712C0.972 7.688 1.584 7.676 2.424 7.676C3.24 7.676 4.32 7.856 5.664 8.216C7.032 8.552 8.292 9.092 9.444 9.836C10.596 10.58 11.652 11.48 12.612 12.536C14.388 14.504 15.78 16.868 16.788 19.628C18.228 15.524 20.1 12.38 22.404 10.196C24.156 8.54 26.088 7.712 28.2 7.712C28.296 7.712 28.392 7.712 28.488 7.712V8.072C27.288 8.096 26.04 8.732 24.744 9.98C23.472 11.204 22.356 12.692 21.396 14.444C20.436 16.196 19.62 18.02 18.948 19.916C18.3 21.812 17.916 23.456 17.796 24.848V32.372C17.796 32.972 18.012 33.5 18.444 33.956C18.9 34.412 19.452 34.64 20.1 34.64H20.568V35H9.624V34.64H10.092C10.716 34.64 11.244 34.424 11.676 33.992C12.132 33.536 12.372 32.996 12.396 32.372V24.812C12.108 22.22 11.244 19.472 9.804 16.568C8.148 13.208 6.288 10.82 4.224 9.404C3.024 8.564 1.812 8.12 0.588 8.072V7.712ZM59.2317 10.16H58.6197C58.1157 10.16 57.6717 10.328 57.2877 10.664C56.9277 10.976 56.7477 11.372 56.7477 11.852V25.892C56.7477 28.844 55.8237 31.184 53.9757 32.912C52.1277 34.64 49.5957 35.504 46.3797 35.504C42.5877 35.504 39.6837 34.664 37.6677 32.984C35.6517 31.28 34.6437 28.928 34.6437 25.928V11.96C34.6437 11.432 34.4517 11 34.0677 10.664C33.7077 10.328 33.2637 10.16 32.7357 10.16H32.1597V9.8H42.5277V10.16H41.9517C41.4237 10.16 40.9797 10.328 40.6197 10.664C40.2597 10.976 40.0677 11.384 40.0437 11.888V25.64C40.0437 28.184 40.6677 30.2 41.9157 31.688C43.1637 33.176 44.8797 33.92 47.0637 33.92C49.2477 33.92 50.9757 33.224 52.2477 31.832C53.5197 30.416 54.1677 28.508 54.1917 26.108V11.888C54.1917 11.384 53.9997 10.976 53.6157 10.664C53.2557 10.328 52.8117 10.16 52.2837 10.16H51.7077V9.8H59.2317V10.16ZM97.6325 34.64H98.2085V35H87.4085V34.676H87.9485C88.3565 34.676 88.7045 34.52 88.9925 34.208C89.2805 33.872 89.4005 33.512 89.3525 33.128L87.9485 20.06L81.1805 31.724C80.2925 33.212 79.8365 34.544 79.8125 35.72H79.4525L70.2005 20.168L68.7965 33.128C68.7485 33.512 68.8685 33.872 69.1565 34.208C69.4445 34.52 69.7925 34.676 70.2005 34.676H70.7405V35H63.2165V34.64H63.7925C64.4645 34.64 65.0405 34.436 65.5205 34.028C66.0245 33.62 66.3245 33.068 66.4205 32.372L69.4085 9.296H69.7325L80.8925 27.656L91.6205 9.296H91.9445L95.0045 32.372C95.1245 33.068 95.4245 33.62 95.9045 34.028C96.4085 34.436 96.9845 34.64 97.6325 34.64ZM135.725 34.64H136.301V35H125.501V34.676H126.041C126.449 34.676 126.797 34.52 127.085 34.208C127.373 33.872 127.493 33.512 127.445 33.128L126.041 20.06L119.273 31.724C118.385 33.212 117.929 34.544 117.905 35.72H117.545L108.293 20.168L106.889 33.128C106.841 33.512 106.961 33.872 107.249 34.208C107.537 34.52 107.885 34.676 108.293 34.676H108.833V35H101.309V34.64H101.885C102.557 34.64 103.133 34.436 103.613 34.028C104.117 33.62 104.417 33.068 104.513 32.372L107.501 9.296H107.825L118.985 27.656L129.713 9.296H130.037L133.097 32.372C133.217 33.068 133.517 33.62 133.997 34.028C134.501 34.436 135.077 34.64 135.725 34.64ZM165.236 10.16H164.732C164.012 10.16 163.328 10.364 162.68 10.772C162.032 11.18 161.516 11.672 161.132 12.248L154.04 23.552V32.372C154.04 32.996 154.268 33.536 154.724 33.992C155.18 34.424 155.72 34.64 156.344 34.64H156.776L156.812 35H145.868V34.64H146.336C146.96 34.64 147.488 34.424 147.92 33.992C148.376 33.56 148.616 33.032 148.64 32.408V23.516L141.764 12.212C141.404 11.636 140.888 11.156 140.216 10.772C139.568 10.364 138.896 10.16 138.2 10.16H137.696V9.8H149.612V10.16H149.144C148.616 10.16 148.208 10.4 147.92 10.88C147.776 11.144 147.704 11.408 147.704 11.672C147.704 11.912 147.764 12.152 147.884 12.392L153.032 21.752L158.36 12.392C158.504 12.152 158.576 11.912 158.576 11.672C158.576 11.408 158.492 11.156 158.324 10.916C158.036 10.412 157.628 10.16 157.1 10.16H156.668V9.8H165.236V10.16ZM169.798 34.604C169.294 35.108 168.682 35.36 167.962 35.36C167.242 35.36 166.63 35.108 166.126 34.604C165.622 34.1 165.37 33.488 165.37 32.768C165.37 32.048 165.622 31.436 166.126 30.932C166.63 30.404 167.242 30.14 167.962 30.14C168.682 30.14 169.294 30.404 169.798 30.932C170.326 31.436 170.59 32.048 170.59 32.768C170.59 33.488 170.326 34.1 169.798 34.604ZM181.559 34.604C181.055 35.108 180.443 35.36 179.723 35.36C179.003 35.36 178.391 35.108 177.887 34.604C177.383 34.1 177.131 33.488 177.131 32.768C177.131 32.048 177.383 31.436 177.887 30.932C178.391 30.404 179.003 30.14 179.723 30.14C180.443 30.14 181.055 30.404 181.559 30.932C182.087 31.436 182.351 32.048 182.351 32.768C182.351 33.488 182.087 34.1 181.559 34.604ZM193.319 34.604C192.815 35.108 192.203 35.36 191.483 35.36C190.763 35.36 190.151 35.108 189.647 34.604C189.143 34.1 188.891 33.488 188.891 32.768C188.891 32.048 189.143 31.436 189.647 30.932C190.151 30.404 190.763 30.14 191.483 30.14C192.203 30.14 192.815 30.404 193.319 30.932C193.847 31.436 194.111 32.048 194.111 32.768C194.111 33.488 193.847 34.1 193.319 34.604Z" fill="#FDF5F5"/>
    <path d="M22.964 49.974C23.3187 50.03 23.6407 50.1747 23.93 50.408C24.2287 50.6413 24.462 50.9307 24.63 51.276C24.8073 51.6213 24.896 51.99 24.896 52.382C24.896 52.8767 24.77 53.3247 24.518 53.726C24.266 54.118 23.8973 54.4307 23.412 54.664C22.936 54.888 22.3713 55 21.718 55H18.078V45.242H21.578C22.2407 45.242 22.8053 45.354 23.272 45.578C23.7387 45.7927 24.0887 46.0867 24.322 46.46C24.5553 46.8333 24.672 47.2533 24.672 47.72C24.672 48.2987 24.5133 48.7793 24.196 49.162C23.888 49.5353 23.4773 49.806 22.964 49.974ZM19.352 49.456H21.494C22.0913 49.456 22.5533 49.316 22.88 49.036C23.2067 48.756 23.37 48.3687 23.37 47.874C23.37 47.3793 23.2067 46.992 22.88 46.712C22.5533 46.432 22.082 46.292 21.466 46.292H19.352V49.456ZM21.606 53.95C22.2407 53.95 22.7353 53.8007 23.09 53.502C23.4447 53.2033 23.622 52.788 23.622 52.256C23.622 51.7147 23.4353 51.29 23.062 50.982C22.6887 50.6647 22.1893 50.506 21.564 50.506H19.352V53.95H21.606ZM34.7419 47.328L30.1219 58.612H28.8059L30.3179 54.916L27.2239 47.328H28.6379L31.0459 53.544L33.4259 47.328H34.7419ZM52.593 45.312V55H51.319V47.776L48.099 55H47.203L43.969 47.762V55H42.695V45.312H44.067L47.651 53.32L51.235 45.312H52.593ZM63.0276 47.328V55H61.7536V53.866C61.511 54.258 61.1703 54.566 60.7316 54.79C60.3023 55.0047 59.8263 55.112 59.3036 55.112C58.7063 55.112 58.1696 54.9907 57.6936 54.748C57.2176 54.496 56.8396 54.1227 56.5596 53.628C56.289 53.1333 56.1536 52.5313 56.1536 51.822V47.328H57.4136V51.654C57.4136 52.41 57.605 52.9933 57.9876 53.404C58.3703 53.8053 58.893 54.006 59.5556 54.006C60.237 54.006 60.7736 53.796 61.1656 53.376C61.5576 52.956 61.7536 52.3447 61.7536 51.542V47.328H63.0276ZM75.8747 47.188C76.472 47.188 77.004 47.314 77.4707 47.566C77.9374 47.8087 78.306 48.1773 78.5767 48.672C78.8474 49.1667 78.9827 49.7687 78.9827 50.478V55H77.7227V50.66C77.7227 49.8947 77.5314 49.3113 77.1487 48.91C76.7754 48.4993 76.2667 48.294 75.6227 48.294C74.96 48.294 74.4327 48.5087 74.0407 48.938C73.6487 49.358 73.4527 49.9693 73.4527 50.772V55H72.1927V50.66C72.1927 49.8947 72.0014 49.3113 71.6187 48.91C71.2454 48.4993 70.7367 48.294 70.0927 48.294C69.43 48.294 68.9027 48.5087 68.5107 48.938C68.1187 49.358 67.9227 49.9693 67.9227 50.772V55H66.6487V47.328H67.9227V48.434C68.1747 48.0327 68.5107 47.7247 68.9307 47.51C69.36 47.2953 69.8314 47.188 70.3447 47.188C70.9887 47.188 71.558 47.3327 72.0527 47.622C72.5474 47.9113 72.916 48.336 73.1587 48.896C73.3734 48.3547 73.728 47.9347 74.2227 47.636C74.7174 47.3373 75.268 47.188 75.8747 47.188ZM91.7685 47.188C92.3659 47.188 92.8979 47.314 93.3645 47.566C93.8312 47.8087 94.1999 48.1773 94.4705 48.672C94.7412 49.1667 94.8765 49.7687 94.8765 50.478V55H93.6165V50.66C93.6165 49.8947 93.4252 49.3113 93.0425 48.91C92.6692 48.4993 92.1605 48.294 91.5165 48.294C90.8539 48.294 90.3265 48.5087 89.9345 48.938C89.5425 49.358 89.3465 49.9693 89.3465 50.772V55H88.0865V50.66C88.0865 49.8947 87.8952 49.3113 87.5125 48.91C87.1392 48.4993 86.6305 48.294 85.9865 48.294C85.3239 48.294 84.7965 48.5087 84.4045 48.938C84.0125 49.358 83.8165 49.9693 83.8165 50.772V55H82.5425V47.328H83.8165V48.434C84.0685 48.0327 84.4045 47.7247 84.8245 47.51C85.2539 47.2953 85.7252 47.188 86.2385 47.188C86.8825 47.188 87.4519 47.3327 87.9465 47.622C88.4412 47.9113 88.8099 48.336 89.0525 48.896C89.2672 48.3547 89.6219 47.9347 90.1165 47.636C90.6112 47.3373 91.1619 47.188 91.7685 47.188ZM105.044 47.328L100.424 58.612H99.1084L100.62 54.916L97.5264 47.328H98.9404L101.348 53.544L103.728 47.328H105.044Z" fill="#FDF5F5"/>
</svg>
