<svg aria-hidden="true" focusable="false" width="32" height="32" viewBox="0 0 32 32" fill="none" xmlns="http://www.w3.org/2000/svg">
    <path d="M14.4293 22.9728C9.91492 22.9728 6.27832 19.3299 6.27832 14.8077C6.27832 10.2854 9.91492 6.64255 14.4293 6.64255C18.9437 6.64255 22.5803 10.2854 22.5803 14.8077C22.5803 19.3299 18.9437 22.9728 14.4293 22.9728ZM14.4293 7.89872C10.6046 7.89872 7.53232 10.9763 7.53232 14.8077C7.53232 18.639 10.6046 21.7166 14.4293 21.7166C18.254 21.7166 21.3263 18.639 21.3263 14.8077C21.3263 10.9763 18.254 7.89872 14.4293 7.89872Z" fill="black"/>
    <path d="M20.5 20L26.1304 25.6402L25.2438 26.5284L19.6134 20.8882L20.5 20Z" fill="black"/>
</svg>
